<svg id="Layer_1" data-name="Layer 1" xmlns="http://www.w3.org/2000/svg" viewBox="0 0 356 119"><title>Rair_02</title><rect x="1.5" y="1.5" width="353" height="116" fill="#fff"/><path d="M414,42V155H64V42H414m3-3H61V158H417V39Z" transform="translate(-61 -39)" fill="#605f5f"/><path d="M86,120.69q7.68-14.76,7.68-14.71c0-.54-.49-1.13-1.45-1.76q-7.11-4.8-9.75-9.9T79.83,80.67q0-12.83,10.25-19.63,9.06-6,23.4-6,6.92,0,18.55.23,17.16.34,19.21.7t2,1.35l-.06.82Q152,72,152,96.78q0,6.51.66,19.51t.66,19.46c0,1-.6,1.58-1.82,1.81a87.24,87.24,0,0,1-10.82.36c-5.24,0-9.09-.08-11.57-.24l-1.76-.12c-.38-.11-.56-.5-.56-1.17q0-4,.78-11.89t.79-11.9c0-2-.32-3-.95-3q-8.36,0-6.47-.12-4.09.23-5.22,2.52-5.22,11.42-7.68,17.28-1.81,4.51-2.76,6.8a2.71,2.71,0,0,1-.88,1.17,6.49,6.49,0,0,1-1.58.29,111.87,111.87,0,0,1-11.19.36,114,114,0,0,1-12-.36c-.84-.11-1.26-.31-1.26-.58Q78.32,135.45,86,120.69Zm32.52-26.07a59.37,59.37,0,0,0,8-.53c1.34-.2,2-.39,2-.59,0-.86,0-2.17.06-3.92s.06-3.09.06-4a95.75,95.75,0,0,0-.37-11.48q-.37-1.69-6.35-1.7-8.31,0-12.2,2.11-5,2.74-5,9.9Q104.73,94.62,118.51,94.62Z" transform="translate(-61 -39)" fill="#605f5f" stroke="#605f5f" stroke-miterlimit="10"/><path d="M251.68,135.74c0,.7-.49,1.19-1.47,1.46q-1.76.47-10.9.47a74.35,74.35,0,0,1-10.78-.47,3.15,3.15,0,0,1-2.52-2.64q-2-8.43-3.1-9-.94-.41-15.71-.41-10,0-10.6.53-1,.93-2.23,6.27-1.11,4.86-2.69,5.27-2,.47-13.36.47-9,0-9-1.7,0-1.51,13.24-37.44,14.35-38.85,15.59-42.72c.47-1.48,1-2.22,1.64-2.22,1.06,0,2.69.1,4.89.29s3.86.29,4.95.29,2.61-.07,4.66-.2,3.59-.21,4.6-.21c.74,0,1.43.65,2.05,1.94q2.88,6.15,16.76,42.18Q251.68,134.15,251.68,135.74ZM210.13,82.36Q208.9,84.94,206,93.55q-3.16,9.14-3.16,10.72c0,.7,1.17,1.1,3.51,1.17,1.21.08,3.21.12,6,.12,2.58,0,4-.31,4.28-.94a2.22,2.22,0,0,0,.12-.82q0-1.93-2.7-10.66A82.68,82.68,0,0,0,210.13,82.36Z" transform="translate(-61 -39)" fill="#605f5f"/><path d="M298.38,93.9q0,6.91.35,20.8t.35,20.8c0,.78-.17,1.27-.52,1.47a13.53,13.53,0,0,1-1.53.23,88,88,0,0,1-10.19.47,74.78,74.78,0,0,1-10.9-.47c-1.14-.23-1.7-.84-1.7-1.82q0,.94.53-10.31,1.05-23.73,1.05-31.17,0-6.27-.41-18.81T275,56.28Q275,55,276.35,55c1.21,0,3,.06,5.48.18s4.26.17,5.48.17,3-.05,5.36-.17S296.82,55,298,55s1.7.43,1.7,1.29q0,6.27-.68,18.81T298.38,93.9Z" transform="translate(-61 -39)" fill="#605f5f"/><path d="M331,120.69q7.68-14.76,7.68-14.71c0-.54-.49-1.13-1.45-1.76q-7.11-4.8-9.75-9.9t-2.64-13.65q0-12.83,10.25-19.63,9.06-6,23.4-6,6.91,0,18.55.23,17.16.34,19.21.7t2,1.35l-.06.82Q397,72,397,96.78q0,6.51.66,19.51t.67,19.46c0,1-.61,1.58-1.83,1.81a87.24,87.24,0,0,1-10.82.36c-5.24,0-9.09-.08-11.57-.24l-1.76-.12c-.38-.11-.56-.5-.56-1.17q0-4,.78-11.89t.79-11.9c0-2-.32-3-.95-3q-8.36,0-6.47-.12-4.09.23-5.22,2.52-5.22,11.42-7.68,17.28-1.81,4.51-2.76,6.8a2.71,2.71,0,0,1-.88,1.17,6.47,6.47,0,0,1-1.57.29q-3,.36-11.2.36a114,114,0,0,1-12-.36c-.84-.11-1.26-.31-1.26-.58Q323.32,135.45,331,120.69Zm32.52-26.07a59.37,59.37,0,0,0,8.05-.53c1.34-.2,2-.39,2-.59,0-.86,0-2.17.06-3.92s.07-3.09.07-4a94.76,94.76,0,0,0-.38-11.48q-.37-1.69-6.35-1.7-8.31,0-12.2,2.11-5,2.74-5,9.9Q349.73,94.62,363.51,94.62Z" transform="translate(-61 -39)" fill="#605f5f" stroke="#605f5f" stroke-miterlimit="10"/></svg>